PathFileType	4	(X/Y/Z)	 s08c0302.trc
DataRate	CameraRate	NumFrames	NumMarkers	Units	OrigDataRate	OrigDataStartFrame	OrigNumFrames
200	200	5	50	mm	200	501	2000
Frame#	Time	racr			lacr			c7			jug			rlel			rdr			llel			ldr			s2			lic			ric			lasi			rasi			rpsi			lpsi			rgt			lgt			rth1			rth2			rth3			rth4			rlfc			rmfc			rsh1			rsh2			rsh3			rsh4			rlmal			rmmal			rcal			rtoe			rmt5			lth1			lth2			lth4			lth3			llfc			lmfc			llmal			lmmal			lcal			lmt5			lsh1			lsh2			lsh3			lsh4			ltoe			SBIKE			LBIKE			RBIKE			
		X1	Y1	Z1	X2	Y2	Z2	X3	Y3	Z3	X4	Y4	Z4	X5	Y5	Z5	X6	Y6	Z6	X7	Y7	Z7	X8	Y8	Z8	X9	Y9	Z9	X10	Y10	Z10	X11	Y11	Z11	X12	Y12	Z12	X13	Y13	Z13	X14	Y14	Z14	X15	Y15	Z15	X16	Y16	Z16	X17	Y17	Z17	X18	Y18	Z18	X19	Y19	Z19	X20	Y20	Z20	X21	Y21	Z21	X22	Y22	Z22	X23	Y23	Z23	X24	Y24	Z24	X25	Y25	Z25	X26	Y26	Z26	X27	Y27	Z27	X28	Y28	Z28	X29	Y29	Z29	X30	Y30	Z30	X31	Y31	Z31	X32	Y32	Z32	X33	Y33	Z33	X34	Y34	Z34	X35	Y35	Z35	X36	Y36	Z36	X37	Y37	Z37	X38	Y38	Z38	X39	Y39	Z39	X40	Y40	Z40	X41	Y41	Z41	X42	Y42	Z42	X43	Y43	Z43	X44	Y44	Z44	X45	Y45	Z45	X46	Y46	Z46	X47	Y47	Z47	X48	Y48	Z48	X49	Y49	Z49	X50	Y50	Z50	
501	2.5050	811.805702	1405.332212	-62.552463	815.914179	1380.338034	-385.569869	784.654027	1451.802006	-231.205472	755.837025	1292.122503	-207.610682	728.128374	1157.984339	62.961029	804.029873	888.981956	-32.633172	688.257255	1133.059608	-495.052393	813.176684	903.115186	-411.207016	219.267084	1244.115444	-196.949604	386.138450	1203.886368	-341.928665	382.584876	1265.925827	-32.399756	403.153481	1160.692725	-298.781969	395.267846	1195.124411	-58.411066	252.026850	1288.396784	-149.611521	257.203490	1277.466281	-244.813522	291.409285	1150.003013	12.893635	309.060840	1096.856581	-359.528836	409.058644	1013.841952	23.466363	481.872817	962.556255	18.954422	518.050632	883.927145	10.819225	508.735499	985.689608	9.491458	572.822465	790.322530	-8.302418	563.005333	792.642750	-122.053259	456.742685	733.641985	9.498879	399.093427	670.776489	-20.087785	318.145654	644.836058	-32.084228	420.793308	651.316873	-49.244390	215.066294	590.939120	-49.785257	246.365228	593.720739	-134.440491	153.356240	640.693086	-100.054092	289.025781	373.363378	-99.709060	219.580527	438.097671	-32.961507	349.960959	971.962819	-375.706293	395.180836	897.501557	-373.809457	428.855757	906.964759	-363.304616	395.195893	809.108439	-376.677598	417.603076	683.911349	-359.903600	403.384992	655.257286	-262.358465	293.743006	286.314626	-395.283207	336.731600	307.431358	-323.422345	227.146134	284.067117	-362.160731	405.077260	159.823095	-411.973628	377.964620	562.207153	-396.599721	376.056068	477.173338	-386.493028	333.500513	400.022918	-394.122351	394.714575	473.078996	-351.327661	489.923195	164.627912	-340.717649	-140.511884	938.068716	-220.957739	17.693901	83.318050	-424.037675	10.947651	80.719900	-26.312536	
502	2.5100	809.086584	1408.290600	-56.580406	824.826708	1386.967552	-390.586193	784.283475	1454.836456	-226.241024	755.639547	1295.095003	-202.558657	726.841810	1158.194906	63.892715	804.093555	889.226134	-32.692357	693.269740	1136.905463	-494.256375	814.233433	902.903291	-410.453226	219.256005	1242.079239	-201.213327	390.147368	1201.382940	-342.765130	379.305732	1267.399894	-34.659050	405.633911	1157.282584	-299.184944	393.249876	1196.188548	-60.588091	251.221985	1286.962300	-154.045562	258.020318	1274.941837	-249.164223	289.973258	1150.667562	10.939213	310.808869	1094.903461	-360.845623	410.454358	1017.489997	22.419767	484.393835	967.562364	18.908899	522.238428	889.767965	11.181901	511.232687	991.526115	10.171116	579.123614	797.348168	-7.500220	569.909206	799.012377	-121.483552	463.452491	740.939522	10.103394	405.979065	677.893634	-19.443457	324.905682	652.053897	-31.622127	427.770739	658.047238	-48.168708	222.065143	596.869355	-49.674349	253.415302	600.019941	-134.378147	159.319528	645.966917	-99.854718	299.538174	381.217734	-98.928273	228.575866	444.309679	-32.949999	347.886261	969.992820	-377.242203	391.151591	894.299113	-375.667111	425.045787	902.752094	-365.065745	388.923178	805.871817	-378.906602	408.508523	679.896606	-361.839013	393.931187	651.368768	-264.771626	286.559032	281.690078	-396.980777	330.204428	302.988927	-325.659869	220.516101	280.809337	-364.257434	396.743266	153.319254	-412.069614	368.947576	558.006751	-398.811520	367.589009	473.055042	-388.857571	325.435495	395.616847	-396.284198	386.310932	468.911189	-353.523991	481.213096	157.312826	-340.389618	-140.754310	938.027872	-220.989350	17.673673	83.331665	-424.072563	10.948294	80.711168	-26.350335	
503	2.5150	806.349636	1411.178347	-50.526041	826.401824	1390.955075	-385.127633	783.842479	1457.826997	-221.236192	755.269139	1297.849982	-197.594089	725.845611	1158.220178	64.783428	804.236697	889.483114	-32.711080	698.770873	1140.584841	-491.915844	815.248254	902.818126	-409.541794	219.960440	1240.246392	-205.306074	394.363736	1199.554496	-343.264671	376.302366	1269.030766	-36.444540	408.135484	1154.657816	-299.745486	393.209668	1198.351675	-60.413775	250.722889	1286.144352	-157.438595	259.034560	1272.927889	-253.453605	288.778355	1151.643487	8.905961	312.365154	1093.454591	-362.235152	411.976147	1021.332887	21.247137	486.892837	972.619438	18.178243	526.316768	895.824510	11.206127	513.382083	997.180364	10.115335	584.944493	804.289929	-6.863721	576.334735	805.230994	-120.995393	469.800452	748.103291	10.575787	412.555295	684.866774	-19.039509	331.567051	658.699462	-31.289391	434.428204	664.653834	-47.110017	228.884228	602.220068	-49.684605	260.081450	605.870953	-134.392526	165.309374	650.504081	-99.789371	309.269759	387.435124	-99.918227	238.269196	449.987108	-32.882595	345.801296	968.410733	-378.719180	387.158206	891.661288	-377.642556	421.231041	899.219588	-366.871844	384.074214	802.633710	-380.006006	399.423710	676.657229	-363.921662	384.248758	648.189837	-267.149575	279.205934	277.659645	-398.436184	322.993256	299.461593	-327.165191	213.908310	278.443045	-365.479337	387.792928	147.375495	-412.159104	359.985745	554.862083	-401.250612	359.019301	469.787326	-391.414363	317.221848	392.122467	-398.585063	377.821730	465.708216	-356.013058	472.255320	150.059305	-340.351299	-140.929348	938.122998	-221.325282	17.655024	83.337205	-424.111257	10.912142	80.732136	-26.372002	
504	2.5200	803.535927	1413.937310	-44.540280	827.599674	1394.988216	-379.528572	783.379512	1460.970521	-216.248268	754.740120	1300.378274	-192.727004	724.696380	1158.401804	65.544562	804.464582	889.766394	-32.766174	701.866064	1144.560072	-492.476607	816.295248	902.704114	-408.547960	220.689424	1239.180720	-209.648936	398.666077	1198.503370	-343.466795	373.283530	1270.535632	-38.572093	410.889589	1152.091834	-300.948340	393.698778	1200.539096	-60.855631	250.907727	1284.790321	-162.865945	260.386260	1271.573561	-257.694313	287.603408	1152.878838	6.668865	313.744441	1092.507595	-363.640200	413.424005	1025.377889	20.085964	489.316863	978.084774	17.901088	530.190336	901.967992	10.805449	515.309411	1002.878404	9.719753	590.360429	811.183323	-6.241788	582.230487	811.409397	-120.713143	475.904423	755.026187	10.801801	418.920968	691.409698	-18.503525	338.079462	664.980203	-30.913522	441.066025	670.928158	-46.048363	235.721877	606.927957	-49.773397	266.977246	611.320105	-134.299638	171.298234	654.273975	-99.776512	320.047406	394.106785	-100.078158	247.891436	455.269481	-32.905680	344.123438	967.916510	-381.647397	383.320445	889.450746	-379.673079	417.503194	896.168335	-368.702155	378.088663	800.559469	-382.618545	390.113250	674.421783	-366.482887	374.659007	645.921453	-269.591617	271.516663	274.559781	-399.600330	314.453370	296.867562	-327.808861	207.289320	276.873912	-366.800880	378.897084	142.290380	-412.305616	350.969911	552.189317	-403.689238	350.339531	467.297256	-393.629990	308.797476	389.416818	-400.695738	369.225160	463.388831	-358.466909	462.857540	143.550966	-339.914097	-140.970584	938.005687	-221.469724	17.633008	83.325253	-424.117708	10.907615	80.742903	-26.400559	
505	2.5250	800.705806	1416.620581	-38.562447	828.522627	1398.820094	-374.105820	782.769323	1464.215501	-211.149113	754.066811	1302.670710	-187.967428	723.420441	1158.579611	66.143162	804.751498	890.241068	-32.858785	706.769218	1148.202223	-489.889829	817.437736	902.689926	-407.653790	221.989869	1238.712103	-213.860504	402.611003	1198.393855	-343.818406	370.510210	1272.463659	-40.380000	413.232919	1150.801378	-301.901842	392.891333	1202.641711	-62.458909	250.449992	1284.789422	-167.122134	261.961656	1270.771857	-261.720602	286.908025	1154.533162	4.369098	314.980423	1091.959740	-365.070964	414.882005	1029.559112	18.865046	491.388796	983.406709	17.378428	533.750065	907.796076	10.636273	517.664446	1008.730209	9.261886	595.571226	817.873862	-5.981354	587.716076	817.528763	-120.328314	481.604475	761.606799	10.755549	425.160557	697.439739	-18.200641	344.530261	670.365892	-30.711289	446.931285	677.120016	-44.987724	242.644191	611.091744	-49.827838	273.944587	615.984547	-134.349783	177.254828	657.347280	-99.847181	331.209803	400.658940	-99.500231	257.700267	459.881461	-32.881889	342.546182	967.547457	-383.897368	379.707970	887.920245	-381.762675	413.912118	893.701515	-370.503766	372.219095	799.215403	-385.436363	381.014423	672.586177	-368.719839	364.377887	644.963061	-272.170179	263.792941	272.334545	-400.660123	306.805260	294.445685	-329.100485	200.856331	276.125300	-368.319022	369.739231	137.767006	-412.378023	341.666997	550.448817	-405.925369	341.583655	465.289440	-395.578993	300.533030	387.359111	-402.581991	360.636794	461.624935	-360.566416	453.285645	137.475554	-339.428755	-141.098963	938.069046	-221.573915	17.620657	83.370314	-424.155469	10.898656	80.760211	-26.405918	
